<svg width="680" height="380" viewBox="0 0 680 380" xmlns="http://www.w3.org/2000/svg" style="font-family: -apple-system, BlinkMacSystemFont, 'Segoe UI', sans-serif; background: #fff;">

  <defs>
    <marker id="arrow" viewBox="0 0 10 10" refX="8" refY="5" markerWidth="6" markerHeight="6" orient="auto-start-reverse">
      <path d="M2 1L8 5L2 9" fill="none" stroke="context-stroke" stroke-width="1.5" stroke-linecap="round" stroke-linejoin="round"/>
    </marker>
  </defs>

  <!-- Decorative dashed timeline track -->
  <path d="M175 96 L175 128 Q175 140 187 140 L493 140 Q505 140 505 152 L505 160" fill="none" stroke="#B4B2A9" stroke-width="0.5" stroke-dasharray="4 4" opacity="0.5"/>
  <path d="M505 216 L505 248 Q505 260 493 260 L187 260 Q175 260 175 272 L175 280" fill="none" stroke="#B4B2A9" stroke-width="0.5" stroke-dasharray="4 4" opacity="0.5"/>

  <!-- Row 1: v0.0 (left) → v0.1 (right) -->
  <g>
    <rect x="40" y="40" width="270" height="56" rx="10" fill="#FAEEDA" stroke="#854F0B" stroke-width="0.5"/>
    <text x="175" y="58" text-anchor="middle" dominant-baseline="central" font-weight="500" font-size="14" fill="#633806">v0.0</text>
    <text x="175" y="78" text-anchor="middle" dominant-baseline="central" font-size="12" fill="#854F0B">엔진 코어</text>
  </g>
  <rect x="222" y="44" width="80" height="22" rx="11" fill="#EF9F27" opacity="0.2"/>
  <text x="262" y="55" text-anchor="middle" dominant-baseline="central" font-size="11" fill="#854F0B">진행 중</text>

  <line x1="310" y1="68" x2="360" y2="68" stroke="#EF9F27" stroke-width="1" marker-end="url(#arrow)"/>

  <g>
    <rect x="370" y="40" width="270" height="56" rx="10" fill="#E1F5EE" stroke="#0F6E56" stroke-width="0.5"/>
    <text x="505" y="58" text-anchor="middle" dominant-baseline="central" font-weight="500" font-size="14" fill="#085041">v0.1</text>
    <text x="505" y="78" text-anchor="middle" dominant-baseline="central" font-size="12" fill="#0F6E56">에디터 안정화 · Simple Demo</text>
  </g>
  <rect x="552" y="44" width="56" height="22" rx="11" fill="#D3D1C7" opacity="0.4"/>
  <text x="580" y="55" text-anchor="middle" dominant-baseline="central" font-size="11" fill="#5F5E5A">예정</text>

  <!-- Connector: v0.1 down to v0.2 -->
  <path d="M505 96 L505 150" fill="none" stroke="#0F6E56" stroke-width="1" marker-end="url(#arrow)"/>

  <!-- Row 2: v0.2 (right) → v0.3 (left) -->
  <g>
    <rect x="370" y="160" width="270" height="56" rx="10" fill="#E6F1FB" stroke="#185FA5" stroke-width="0.5"/>
    <text x="505" y="178" text-anchor="middle" dominant-baseline="central" font-weight="500" font-size="14" fill="#0C447C">v0.2</text>
    <text x="505" y="198" text-anchor="middle" dominant-baseline="central" font-size="12" fill="#185FA5">Audio, VFX 시스템</text>
  </g>
  <rect x="552" y="164" width="56" height="22" rx="11" fill="#D3D1C7" opacity="0.4"/>
  <text x="580" y="175" text-anchor="middle" dominant-baseline="central" font-size="11" fill="#5F5E5A">예정</text>

  <line x1="370" y1="188" x2="320" y2="188" stroke="#185FA5" stroke-width="1" marker-end="url(#arrow)"/>

  <g>
    <rect x="40" y="160" width="270" height="56" rx="10" fill="#EEEDFE" stroke="#534AB7" stroke-width="0.5"/>
    <text x="175" y="178" text-anchor="middle" dominant-baseline="central" font-weight="500" font-size="14" fill="#3C3489">v0.3</text>
    <text x="175" y="198" text-anchor="middle" dominant-baseline="central" font-size="12" fill="#534AB7">게임 데모 제작</text>
  </g>
  <rect x="222" y="164" width="56" height="22" rx="11" fill="#D3D1C7" opacity="0.4"/>
  <text x="250" y="175" text-anchor="middle" dominant-baseline="central" font-size="11" fill="#5F5E5A">예정</text>

  <!-- Connector: v0.3 down to v0.4 -->
  <path d="M175 216 L175 270" fill="none" stroke="#534AB7" stroke-width="1" marker-end="url(#arrow)"/>

  <!-- Row 3: v0.4 (left) -->
  <g>
    <rect x="40" y="280" width="270" height="56" rx="10" fill="#FAECE7" stroke="#993C1D" stroke-width="0.5"/>
    <text x="175" y="298" text-anchor="middle" dominant-baseline="central" font-weight="500" font-size="14" fill="#712B13">v0.4</text>
    <text x="175" y="318" text-anchor="middle" dominant-baseline="central" font-size="12" fill="#993C1D">Standalone 빌드 출력</text>
  </g>
  <rect x="222" y="284" width="56" height="22" rx="11" fill="#D3D1C7" opacity="0.4"/>
  <text x="250" y="295" text-anchor="middle" dominant-baseline="central" font-size="11" fill="#5F5E5A">예정</text>

  <!-- Legend -->
  <circle cx="430" cy="310" r="5" fill="#EF9F27" opacity="0.6"/>
  <text x="442" y="314" dominant-baseline="central" font-size="12" fill="#5F5E5A">진행 중</text>
  <circle cx="520" cy="310" r="5" fill="#D3D1C7" opacity="0.6"/>
  <text x="532" y="314" dominant-baseline="central" font-size="12" fill="#5F5E5A">예정</text>

</svg>